<svg xmlns="http://www.w3.org/2000/svg" viewBox="0 0 48 48"><defs><style>.cls-1{fill:#003db1;}.cls-2{fill:#fff;}</style></defs><title>logo</title><g id="Слой_2" data-name="Слой 2"><g id="Слой_1-2" data-name="Слой 1"><circle class="cls-1" cx="24" cy="24" r="24"/><path class="cls-2" d="M15.44,33.41H25a9,9,0,0,0,5.63-1.48,4.88,4.88,0,0,0,1.9-4.09v0c0-2.36-1.55-3.8-4.6-4.29A5.33,5.33,0,0,0,30.89,22a4.1,4.1,0,0,0,1-2.85v0A3.78,3.78,0,0,0,30,15.75a10.37,10.37,0,0,0-5.38-1.16H15.44V33.41Zm6.4-3.74v-4h1.92q2.27,0,2.27,2a1.77,1.77,0,0,1-.67,1.55,3.35,3.35,0,0,1-2,.48Zm0-7.77V18.37h.83a4.12,4.12,0,0,1,2,.37,1.39,1.39,0,0,1,.63,1.32c0,1.23-.77,1.85-2.3,1.85Z"/></g></g></svg>