<svg xmlns="http://www.w3.org/2000/svg" viewBox="0 0 48 48"><g data-name="Слой 2"><g data-name="Слой 1"><circle cx="24" cy="24" r="24" fill="#003db1"/><path d="M15.44 33.41H25a9 9 0 005.63-1.48 4.88 4.88 0 001.9-4.09c0-2.36-1.55-3.8-4.6-4.29A5.33 5.33 0 0030.89 22a4.1 4.1 0 001-2.85 3.78 3.78 0 00-1.89-3.4 10.37 10.37 0 00-5.38-1.16h-9.18v18.82zm6.4-3.74v-4h1.92q2.27 0 2.27 2a1.77 1.77 0 01-.67 1.55 3.35 3.35 0 01-2 .48zm0-7.77v-3.53h.83a4.12 4.12 0 012 .37 1.39 1.39 0 01.63 1.32c0 1.23-.77 1.85-2.3 1.85z" fill="#fff"/></g></g></svg>